<?xml version="1.0" standalone="no"?>
<!DOCTYPE svg PUBLIC "-//W3C//DTD SVG 20010904//EN"
 "http://www.w3.org/TR/2001/REC-SVG-20010904/DTD/svg10.dtd">
<svg version="1.0" xmlns="http://www.w3.org/2000/svg"
 width="1024.000000pt" height="1024.000000pt" viewBox="0 0 1024.000000 1024.000000"
 preserveAspectRatio="xMidYMid meet">

<g transform="translate(0.000000,1024.000000) scale(0.100000,-0.100000)"
fill="#FFF" stroke="none">
<path d="M4840 8929 c-307 -32 -685 -136 -1040 -286 -164 -69 -538 -253 -755
-370 -172 -93 -525 -269 -756 -377 -197 -92 -239 -122 -270 -192 -42 -94 -63
-530 -56 -1164 6 -495 11 -589 53 -880 138 -974 481 -1805 1022 -2485 423
-530 980 -967 1667 -1305 282 -139 324 -154 415 -155 89 0 121 12 408 151 247
119 417 216 623 352 704 468 1192 1013 1557 1742 60 118 132 276 162 350 198
501 330 1065 385 1654 32 336 29 1177 -6 1571 -19 216 -55 260 -314 373 -131
57 -458 222 -775 390 -757 401 -1213 566 -1735 627 -141 16 -443 18 -585 4z
m690 -468 c491 -92 898 -257 1675 -682 143 -79 339 -180 435 -225 104 -49 182
-92 192 -106 14 -18 20 -61 29 -207 15 -246 6 -938 -15 -1171 -76 -823 -249
-1432 -578 -2031 -432 -787 -1046 -1356 -1918 -1776 -164 -79 -201 -94 -232
-90 -50 7 -470 216 -658 329 -304 182 -544 371 -811 637 -689 690 -1108 1625
-1234 2756 -55 489 -61 1473 -10 1551 8 13 122 75 277 151 145 71 367 186 493
255 627 342 1014 500 1442 588 216 44 272 49 548 45 203 -2 272 -7 365 -24z"/>
<path d="M4946 7720 c-447 -51 -803 -342 -939 -765 -54 -168 -62 -236 -62
-551 l0 -291 -120 -6 c-146 -6 -221 -30 -308 -96 -76 -58 -129 -134 -164 -236
l-28 -80 0 -740 0 -740 23 -85 c26 -95 93 -244 143 -316 54 -78 168 -192 244
-243 85 -56 209 -104 315 -121 55 -8 352 -10 1110 -8 l1035 3 90 28 c325 101
565 375 624 711 7 38 11 314 11 760 0 778 -1 782 -65 913 -42 85 -116 158
-208 202 -77 38 -143 51 -261 51 l-91 0 4 244 c4 344 -25 527 -119 724 -156
327 -456 559 -814 627 -100 19 -314 27 -420 15z m325 -424 c243 -44 445 -212
533 -446 52 -137 59 -188 64 -472 l4 -268 -752 0 -752 0 5 283 c5 301 10 339
63 476 59 147 180 285 312 354 60 32 169 68 242 80 56 9 210 5 281 -7z m17
-1844 c83 -32 136 -82 179 -169 35 -70 38 -84 41 -177 5 -140 -15 -192 -113
-295 -40 -42 -75 -86 -79 -98 -4 -12 12 -104 38 -220 25 -109 52 -245 61 -302
l17 -104 -26 -26 -26 -26 -252 -3 c-266 -3 -303 2 -317 41 -9 24 21 200 73
433 20 88 36 176 36 194 0 27 -13 46 -74 110 -105 110 -138 208 -116 346 27
172 123 282 271 314 71 15 226 5 287 -18z"/>
</g>
</svg>
